<svg xmlns="http://www.w3.org/2000/svg" version="1.1" xmlns:xlink="http://www.w3.org/1999/xlink" xmlns:svgjs="http://svgjs.com/svgjs" width="1440" height="700" preserveAspectRatio="none" viewBox="0 0 1440 700"><g mask="url(&quot;#SvgjsMask4308&quot;)" fill="none"><rect width="1440" height="700" x="0" y="0" fill="rgba(13, 39, 66, 1)"></rect><use xlink:href="#SvgjsG4318" transform="translate(0, 0)" fill="rgba(255, 87, 87, 1)"></use><use xlink:href="#SvgjsG4318" transform="translate(0, 699.9999999999999)" fill="rgba(255, 87, 87, 1)"></use><use xlink:href="#SvgjsG4318" transform="translate(816, 0)" fill="rgba(255, 87, 87, 1)"></use><use xlink:href="#SvgjsG4318" transform="translate(816, 699.9999999999999)" fill="rgba(255, 87, 87, 1)"></use></g><defs><mask id="SvgjsMask4308"><rect width="1440" height="700" fill="#ffffff"></rect></mask><g id="SvgjsG4315"><path d="M1.32 3.37l7.15 7.16-0.67 0.67L0.65 4.04zM8.34 7.58a1.2 1.2 0 0 1 1.7 0c0.47 0.47 0.47 1.23 0 1.69-0.47 0.47-1.23 0.47-1.7 0-0.47-0.47-0.47-1.23 0-1.69z m-0.21-1.97L5.29 2.77 3.34 1.34 1.88 2.81l0.85 0.85a1.01 1.01 0 0 1 0.27-0.48 1.02 1.02 0 0 1 1.43 0l1.56 1.56 1.52 0.99-0.26 0.41-1.57-1.03L4.09 3.52a0.53 0.53 0 0 0-0.75 0 0.53 0.53 0 0 0-0.01 0.75l3.08 3.08c0.48 0.47 1.25 0.47 1.73-0.01a1.22 1.22 0 0 0-0.01-1.73z"></path><path d="M4.85 11.84c1.9 1.9 4.97 1.9 6.86 0 1.9-1.9 1.9-4.97 0-6.86-1.24-1.24-2.98-1.66-4.57-1.28l1.44 1.43a3.28 3.28 0 0 1 2.04 0.96c1.29 1.29 1.29 3.38 0 4.66-1.29 1.29-3.38 1.29-4.66 0a3.28 3.28 0 0 1-0.79-1.25L3.47 7.79c-0.18 1.44 0.27 2.94 1.38 4.05z"></path><path d="M13.61 3.08C11.26 0.74 7.74 0.27 4.93 1.68l0.75 0.55 1.06 1.07C8.56 2.75 10.62 3.2 12.05 4.64c2.09 2.09 2.09 5.47 0 7.55S6.59 14.27 4.5 12.19c-1.31-1.31-1.8-3.13-1.46-4.82L1.31 5.63c-1.07 2.7-0.51 5.89 1.67 8.08 2.93 2.93 7.69 2.93 10.63 0C16.54 10.77 16.54 6.02 13.61 3.08zM13.6 5.5a0.24 0.24 0 0 1-0.32-0.08 5.83 5.83 0 0 0-1.99-1.99c-0.11-0.07-0.15-0.21-0.08-0.33a0.24 0.24 0 0 1 0.33-0.08 6.3 6.3 0 0 1 2.14 2.15 0.24 0.24 0 0 1-0.08 0.33z"></path></g><g id="SvgjsG4316"><path d="M10.68 4.81c0.58 0.58 1.52 0.58 2.1 0S13.36 3.29 12.78 2.71c-0.58-0.58-1.52-0.58-2.11-0.01s-0.58 1.52 0.01 2.11zM6.78 15.11L-1.6 6.72c-0.24-0.24-0.4-0.03-0.4-0.02l-0.31 0.3s-0.42 0.38-0.01 0.8l10.5 10.5c0.42 0.42 0.78 0 0.79 0l0.85-0.86s0.24-0.31-0.08-0.62l-1.03-1.03c-0.35-0.35-1.26-0.02-1.93-0.68z m2.72-1.08c-0.52 0.52-0.52 1.37 0 1.89 0.52 0.52 1.37 0.52 1.89 0 0.52-0.52 0.52-1.37 0-1.89-0.52-0.52-1.37-0.53-1.89 0zM8.2 9.13a0.95 0.95 0 0 1-0.82 0.01L6.22 8.61l0 0.62 1.43 1.43 2.18-2.19-1.61 0.65c-0.01 0-0.01 0-0.02 0.01z"></path><path d="M8.69 12.73L5.74 9.79l-0.01-1.41-0.68-0.31c-0.5-0.24-0.74-0.88-0.52-1.38 0.14-0.31 0.41-0.55 0.73-0.6-0.06-0.06-1.79-1.79-1.79-1.79-0.29-0.29-0.75-0.29-1.03 0-0.29 0.29-0.28 0.74 0 1.03l1.76 1.76-0.36 1.75-3.88-3.31A0.73 0.73 0 0 0-0.95 5.64a0.73 0.73 0 0 0 0 1.03l4.03 4.04a1.04 1.04 0 0 1 0.28-0.5 1.05 1.05 0 0 1 1.49 0l1.61 1.61 1.59 1.04-0.28 0.42-1.62-1.06L4.49 10.56a0.55 0.55 0 0 0-0.78 0.01 0.55 0.55 0 0 0 0 0.77l3.19 3.19c0.5 0.49 1.29 0.49 1.79 0a1.27 1.27 0 0 0 0-1.8z"></path><path d="M5.31 7.68a0.58 0.58 0 0 1-0.33-0.75 0.58 0.58 0 0 1 0.76-0.33l2.06 0.94 1.57-0.65-0.19-0.41L7.84 7.03l-1.57-0.72L7.43 5.16l-2.33 0.1-1.27-1.27s4.63-0.21 4.78-0.21c0.18 0 0.54 0.06 0.94 0.45l1.41 1.42c0.81 0.81 0.16 1.77-0.42 2.02L8 8.72a0.59 0.59 0 0 1-0.47-0.01l-2.22-1.03z"></path></g><g id="SvgjsG4314"><path d="M8.07 16.16c0.65-0.07 1.26-0.46 1.56-1.1l0.27-0.59 0.94 0.95L18.79 7.47 8.57-2.75l-7.95 7.95 5.5 5.49-1.05 2.25a1.92 1.92 0 0 0 0.16 1.9l-0.57 1.13 2.36 2.36 1.05-2.17z m3.43-5.15c-0.69-0.32-1.5-0.02-1.82 0.67l-0.63 1.35L1.21 5.2 8.56-2.16l9.63 9.63-7.35 7.35-0.75-0.75 1.41-3.06z"></path><path d="M9.57 7.34l-0.56 0.57L10.66 9.57c0.07 0.07 0.11 0.23 0 0.34-0.97 0.97-1.54 1.3-2.05 0.79-0.53-0.53 0.51-1.78 0.02-2.42l-1.09 1.1-0.89-0.89L7.75 7.4c-0.63-0.54-1.9 0.54-2.45-0.01-0.51-0.51-0.15-1.06 0.82-2.03 0.11-0.11 0.27-0.07 0.34 0l1.66 1.67 0.57-0.57L6.96 4.74c-0.1-0.1-0.1-0.26 0-0.36s0.26-0.1 0.36 0l1.73 1.72L9.61 5.53l-1.94-1.94a0.25 0.25 0 0 1 0.36-0.35l1.94 1.93 0.57-0.56-1.82-1.82c-0.1-0.1-0.1-0.26 0-0.36 0.1-0.1 0.26-0.1 0.36 0l1.82 1.82L11.46 3.68l-1.42-1.42a0.25 0.25 0 0 1 0.36-0.36l1.42 1.42 0.32-0.31 0.88 0.88-0.31 0.32 1.43 1.42c0.1 0.1 0.1 0.26-0.01 0.36S13.88 6.09 13.78 5.99l-1.43-1.42-0.57 0.56L13.61 6.96a0.25 0.25 0 0 1-0.36 0.36L11.42 5.49l-0.56 0.57 1.94 1.94a0.25 0.25 0 0 1-0.36 0.36l-1.94-1.94-0.57 0.57 1.73 1.72a0.25 0.25 0 0 1-0.36 0.36l-1.73-1.73z"></path></g><g id="SvgjsG4309"><path d="M10.89 5.22c-0.79-0.79-0.79-2.06-0.02-2.84C11.65 1.6 12.92 1.61 13.71 2.4c0.79 0.79 0.79 2.06 0.01 2.83-0.78 0.78-2.05 0.77-2.83-0.01zM9.3 15.34l2.79-5.03C13.2 8.3 11.84 7.05 11.84 7.05L9.06 4.26s-1.26-1.35-3.26-0.24L0.77 6.8c-0.47 0.26-0.55 0.74-0.32 1.15 0.23 0.41 0.71 0.57 1.09 0.37l4.89-2.72 0.53 0.53L-0.85 10.46 5.64 16.96 9.97 9.14l0.53 0.53-2.71 4.9c-0.21 0.38-0.04 0.86 0.36 1.09 0.41 0.23 0.89 0.15 1.15-0.32z m-2.33-1.99c-1.16 1.16-3.05 1.16-4.21 0-1.16-1.16-1.16-3.05 0-4.21 1.16-1.16 3.05-1.16 4.21 0 1.16 1.16 1.16 3.05 0 4.21z"></path><path d="M5.83 11.19a0.71 0.71 0 0 1 0.43-0.92 0.72 0.72 0 0 1 0.91 0.43 0.72 0.72 0 0 1-0.43 0.92 0.71 0.71 0 0 1-0.91-0.43z m-0.24 1.17a361.54 361.54 0 0 1-1.15 0.41c-0.46 0.17-0.98-0.08-1.14-0.54-0.05-0.15-0.06-0.31-0.04-0.46 0.03-0.23 0.3-0.63 0.3-0.63-0.18-0.03-0.62-0.13-0.81-0.16a0.32 0.32 0 0 1-0.26-0.37 0.32 0.32 0 0 1 0.37-0.26 133.4 133.4 0 0 1 1.01 0.19 0.42 0.42 0 0 1 0.35 0.49l-0.2 0.57 0.91-0.3-0.19-0.34a0.31 0.31 0 0 1-0.02-0.24l0.24-0.75a0.31 0.31 0 1 1 0.58 0.18L5.35 10.78c0.1 0.18 0.51 0.92 0.5 0.92 0.02 0.04 0.03 0.08 0.04 0.13a0.46 0.46 0 0 1-0.3 0.53z"></path></g><g id="SvgjsG4312"><path d="M0.8 3.9L10.11 13.2l-0.74 0.73L0.07 4.63z"></path><path d="M5.74 12.79c0.49-0.49-1.71-2.59-2.16-2.14l-1.65 1.65c-0.25 0.21-0.31 0.59-0.08 0.82l5.76 5.76a0.58 0.58 0 0 0 0.83 0L13.67 13.65C16.95 10.36 16.77 4.9 13.12 1.86a0.59 0.59 0 0 0-0.82 0.07l-1.78 1.78 2.15 2.15L13.93 4.6c1.5 2.61 1.14 5.99-1.09 8.22-2.23 2.22-5.62 2.6-8.22 1.09l1.12-1.12z"></path><path d="M9.99 9.99a1.31 1.31 0 0 1 1.85 0c0.51 0.51 0.51 1.34 0 1.85-0.51 0.51-1.34 0.51-1.85 0-0.51-0.51-0.51-1.34 0-1.85zM9.76 7.85L6.66 4.74 2.79 1.9 1.42 3.27l2.44 2.44a1.1 1.1 0 0 1 0.29-0.53c0.43-0.43 1.14-0.43 1.56 0l1.7 1.7 1.67 1.09-0.29 0.45-1.71-1.12-1.74-1.74a0.58 0.58 0 0 0-0.82 0.81L7.88 9.74c0.53 0.52 1.36 0.52 1.88 0a1.33 1.33 0 0 0 0-1.89z"></path></g><g id="SvgjsG4310"><path d="M0.09 6.31C-0.7 5.51 0.09 4.6 0.09 4.6L5.45-0.77l10.53 10.52S16.8 10.51 16.08 11.24c-0.77 0.77-1.41 0.04-1.42 0.04L11.86 8.47a1.37 1.37 0 0 0-0.17-0.28L9.68 5.6l-1.81-3.27a0.22 0.22 0 0 0-0.29-0.08c-0.1 0.06-0.15 0.19-0.09 0.29l1.84 3.34a0.98 0.98 0 0 1 0.09 0.75 0.97 0.97 0 0 1-0.47 0.59 0.97 0.97 0 0 1-0.75 0.08 0.98 0.98 0 0 1-0.59-0.46c0 0 0 0 0-0.01l-0.77-1.4c-0.39-0.74-0.99-0.99-1.63-1.25-0.49-0.2-0.99-0.4-1.51-0.85a3.78 3.78 0 0 1-0.2-0.19 0.21 0.21 0 0 0-0.3 0c-0.09 0.08-0.09 0.23 0 0.31 0.65 0.65 1.29 0.91 1.85 1.14 0.61 0.25 1.08 0.44 1.4 1.04 0 0 0.07 0.12 0.16 0.3-0.45-0.16-0.96-0.1-1.36 0.21-0.46 0.36-0.64 0.95-0.51 1.47a1.29 1.29 0 0 0-1.03 0.25c-0.56 0.43-0.69 1.28-0.24 1.82L0.09 6.31z"></path><path d="M9.05 13.97l1.4 1.39 0.35-0.35L9.4 13.62l-0.35 0.35z m2.58-1.53l-0.52 0.51-0.52-0.52-0.35 0.35 0.52 0.52-0.51 0.51 0.35 0.35 0.51-0.51 0.52 0.52 0.35-0.35-0.52-0.52 0.52-0.51L11.63 12.44z m-2.58 2.92c-0.85-0.85-0.57-1.97 0.05-2.58 0.91-0.91 4.19-1.66 4.2-1.66s-0.75 3.28-1.66 4.19c-0.62 0.62-1.73 0.9-2.59 0.05M11.17 9.84c-0.43 0.33-1.05 0.26-1.38-0.17l-1.48-1.9a1.4 1.4 0 0 0 0.85-0.17 1.41 1.41 0 0 0 0.72-1.03l1.46 1.89a0.98 0.98 0 0 1-0.17 1.38M8.74 10.64a0.98 0.98 0 0 1-0.72 0.2 0.98 0.98 0 0 1-0.66-0.38L5.34 7.86a0.98 0.98 0 0 1 0.18-1.38 0.98 0.98 0 0 1 0.72-0.19 0.98 0.98 0 0 1 0.66 0.37l2.02 2.6a0.98 0.98 0 0 1-0.18 1.38M6.18 11.05a0.85 0.85 0 0 1-1.19-0.16l-1.16-1.49a0.85 0.85 0 0 1 0.15-1.19 0.85 0.85 0 0 1 1.19 0.15l1.16 1.49a0.85 0.85 0 0 1-0.07 1.12c-0.03 0.03-0.05 0.05-0.08 0.08"></path></g><g id="SvgjsG4311"><path d="M12.64 11.64c0.95 0.95 0.95 2.08 0.08 2.95l-4.06 4.06c-0.31 0.31-0.6 0.54-0.59 0.54L3.72 14.85 7.67 10.91l-0.18-0.18-2.01 0.4c-0.31 0.05-0.66-0.13-0.87-0.35L2.72 8.89a0.8 0.8 0 0 1 0-1.14c0.31-0.31 0.82-0.31 1.13 0.01l1.72 1.72L8.57 8.87c0.72-0.15 1.46 0.17 1.94 0.65-1.27 1.27-1.49 2.12-0.92 2.7l-2.11 2.11a0.64 0.64 0 0 0-0.69 0.14 0.63 0.63 0 0 0 0 0.9c0.25 0.25 0.66 0.24 0.9-0.01 0.19-0.19 0.23-0.46 0.15-0.69L9.94 12.56c0.57 0.57 1.42 0.35 2.7-0.92"></path><path d="M12.28 11.29c-1.31 1.29-1.71 1.24-2.18 0.76-0.47-0.47-0.53-0.87 0.77-2.18l1.41 1.42z m2.22-3.65c0.72 0.72 0.72 1.88 0 2.6-0.72 0.72-1.88 0.72-2.6 0-0.72-0.72-0.72-1.88 0-2.6S13.78 6.92 14.5 7.64m-3.37-3.01c0.16 0.16 0.42 0.16 0.57 0s0.16-0.42 0-0.58a0.41 0.41 0 0 0-0.57 0.58M10.66 0.99a0.58 0.58 0 0 0 0.82 0c0.23-0.23 0.23-0.59 0-0.82a0.58 0.58 0 0 0-0.82 0c-0.23 0.23-0.23 0.59 0 0.82m-2.23-2.22c0.23 0.23 0.6 0.23 0.83 0 0.23-0.23 0.23-0.6 0-0.83C9.03-2.29 8.66-2.29 8.43-2.06c-0.23 0.23-0.23 0.6 0 0.83"></path><path d="M8.26 6.72a0.24 0.24 0 0 0 0 0.34c0.09 0.09 0.24 0.09 0.33 0l1.01-1.01 0.13 0.13-1 1.01c-0.09 0.09-0.09 0.24 0 0.34s0.25 0.09 0.33 0L10.95 5.64l0.13 0.13-0.64 0.64a0.18 0.18 0 0 0 0 0.25 0.18 0.18 0 0 0 0.25 0l0.73-0.73c0.2-0.2 0.19-0.55-0.02-0.75 0 0-0.78-0.78-0.78-0.78l-0.23-0.28 0.81-1.45c0.33-0.59-0.07-0.95-0.07-0.95l-1.05-1.06s-0.37-0.4-0.96-0.07l-0.76 0.43 0.42-0.77c0.33-0.59-0.07-0.95-0.07-0.95l-0.81-0.81s-0.37-0.4-0.96-0.07L5.47-0.77c-0.14 0.07-0.19 0.23-0.11 0.35 0.07 0.12 0.23 0.16 0.34 0.09l1.43-0.79 0.16 0.15-2.4 1.46L5.31 0.91l-1.37 1.36a0.29 0.29 0 0 0 0 0.41c0.11 0.11 0.3 0.11 0.41 0l1.36-1.37 0.18 0.18-1.37 1.37a0.29 0.29 0 0 0 0.41 0.4l1.37-1.36 0.4 0.4L8.16-0.09l0.16 0.16-0.79 1.43c-0.05 0.09-0.04 0.22 0.04 0.3 0.07 0.09 0.21 0.11 0.31 0.05l1.43-0.79 0.14 0.14-3.25 3.25a0.34 0.34 0 0 0 0 0.49c0.13 0.13 0.35 0.13 0.48 0L8.53 3.09l0.18 0.17-1.85 1.85a0.34 0.34 0 0 0 0.48 0.49L10.59 2.34l0.16 0.16-0.78 1.37c-0.05 0.08-0.04 0.21 0.01 0.31l0.3 0.52L8.26 6.72z"></path></g><g id="SvgjsG4313"><path d="M9.42 6.89a0.93 0.93 0 0 1 0.4 1.26c-0.24 0.46-0.8 0.64-1.25 0.4l-2.37-1.22a0.93 0.93 0 0 1-0.49-0.72l-0.17-1.32L1.37 12.68-3.31 8 4.03 0.65a1.11 1.11 0 0 1 1.57 0l1.18 1.17c0.17 0.17 0.27 0.37 0.29 0.6L7.5 5.9l1.92 0.99zM4.34 6.24l-0.71-0.71 0.71-0.71-0.84-0.84-0.71 0.71L2.08 3.98l-0.85 0.85 0.71 0.71-0.71 0.7 0.85 0.85L2.78 6.38l0.71 0.72L4.34 6.24zM6.7 1.04c0.78 0.78 2.05 0.78 2.83 0C10.31 0.26 10.31-1.01 9.53-1.79S7.48-2.57 6.7-1.79c-0.78 0.78-0.78 2.05 0 2.83m8.31 8.33c0.78 0.78 2.05 0.78 2.84 0C18.63 8.58 18.63 7.31 17.85 6.53c-0.78-0.78-2.05-0.78-2.84 0-0.78 0.78-0.78 2.05 0 2.84"></path><path d="M14.21 9.32c-0.58-0.58-1.04-0.64-1.61-0.52l-0.41 0.13-0.59-1.07 0.26-0.19-1.53-2.42-0.3 0.19-0.29-0.45 0.3-0.19-0.11-0.18-0.93 0.58 0.11 0.19 0.31-0.2 0.28 0.46-0.3 0.19 1.54 2.42 0.29-0.17 0.67 0.93-6.03 1.9a0.91 0.91 0 0 0-0.57 1.16c0.16 0.48 0.68 0.74 1.15 0.58l5.06-1.62 0.29 0.28-5.9 5.89 2.03 2.03L16.03 11.14 14.21 9.32z"></path></g><g id="SvgjsG4317"><path d="M11.31 3.78c0.48 0.56 1.33 0.63 1.89 0.15 0.56-0.48 0.63-1.33 0.15-1.89A1.34 1.34 0 0 0 11.31 3.78m-1.64 2.16c0.24 0.35 0.2 0.83-0.11 1.15a0.91 0.91 0 0 1-1.28 0L6.2 5.01a0.57 0.57 0 0 1 0-0.81c0.05-0.05 0.12-0.1 0.19-0.13L7.13 3.77l4.29 0.71-1.19-1.19c-0.44-0.47-0.92-0.63-1.47-0.45-0.37 0.12-2.51 0.94-2.51 0.93a0.91 0.91 0 0 0-0.28 1.48l0.81 0.81-1.81 1.33L0.07 9.77a0.87 0.87 0 0 0-0.38 1.16c0.21 0.43 0.74 0.6 1.16 0.38L6.4 8.66c-0.18 0.74-0.44 2.12-0.5 2.37-0.24 0.28-2.31 2.76-2.31 2.76a0.87 0.87 0 0 0 0.11 1.22c0.37 0.31 0.91 0.26 1.22-0.11L7.36 11.99a0.85 0.85 0 0 0 0.18-0.36L8.19 8.9l2.28-1.95s-0.59 1.08-0.64 1.17c-0.12 0.23-0.12 0.47-0.1 0.69 0.01 0.13 0.4 2.17 0.4 2.17 0.04 0.1 0.06 0.18 0.14 0.26a0.6 0.6 0 0 0 0.85 0.06 0.61 0.61 0 0 0 0.21-0.54s-0.38-2.04-0.4-2.12c-0.01-0.07 0.01-0.16 0.03-0.2L12.21 6.24c0.18-0.34 0.14-0.83-0.19-1.16l-0.14-0.14-2.21 1z"></path><path d="M8.51 6.85a0.57 0.57 0 0 0 0.82 0c0.21-0.21 0.22-0.54 0.03-0.76l-1.1 0.51 0.25 0.25z"></path></g><g id="SvgjsG4318"><use xlink:href="#SvgjsG4309" transform="translate(0, 0) scale(2.4)" fill="rgba(255, 87, 87, 1)"></use><use xlink:href="#SvgjsG4310" transform="translate(0, 81.6) scale(2.4)" fill="rgba(255, 87, 87, 1)"></use><use xlink:href="#SvgjsG4311" transform="translate(0, 163.2) scale(2.4)" fill="rgba(255, 87, 87, 1)"></use><use xlink:href="#SvgjsG4311" transform="translate(0, 244.79999999999998) scale(2.4)" fill="rgba(255, 87, 87, 1)"></use><use xlink:href="#SvgjsG4312" transform="translate(0, 326.4) scale(2.4)" fill="rgba(255, 87, 87, 1)"></use><use xlink:href="#SvgjsG4313" transform="translate(0, 408) scale(2.4)" fill="rgba(255, 87, 87, 1)"></use><use xlink:href="#SvgjsG4311" transform="translate(0, 489.59999999999997) scale(2.4)" fill="rgba(255, 87, 87, 1)"></use><use xlink:href="#SvgjsG4314" transform="translate(0, 571.1999999999999) scale(2.4)" fill="rgba(255, 87, 87, 1)"></use><use xlink:href="#SvgjsG4315" transform="translate(0, 652.8) scale(2.4)" fill="rgba(255, 87, 87, 1)"></use><use xlink:href="#SvgjsG4314" transform="translate(81.6, 0) scale(2.4)" fill="rgba(255, 87, 87, 1)"></use><use xlink:href="#SvgjsG4312" transform="translate(81.6, 81.6) scale(2.4)" fill="rgba(255, 87, 87, 1)"></use><use xlink:href="#SvgjsG4314" transform="translate(81.6, 163.2) scale(2.4)" fill="rgba(255, 87, 87, 1)"></use><use xlink:href="#SvgjsG4316" transform="translate(81.6, 244.79999999999998) scale(2.4)" fill="rgba(255, 87, 87, 1)"></use><use xlink:href="#SvgjsG4315" transform="translate(81.6, 326.4) scale(2.4)" fill="rgba(255, 87, 87, 1)"></use><use xlink:href="#SvgjsG4312" transform="translate(81.6, 408) scale(2.4)" fill="rgba(255, 87, 87, 1)"></use><use xlink:href="#SvgjsG4309" transform="translate(81.6, 489.59999999999997) scale(2.4)" fill="rgba(255, 87, 87, 1)"></use><use xlink:href="#SvgjsG4317" transform="translate(81.6, 571.1999999999999) scale(2.4)" fill="rgba(255, 87, 87, 1)"></use><use xlink:href="#SvgjsG4317" transform="translate(81.6, 652.8) scale(2.4)" fill="rgba(255, 87, 87, 1)"></use><use xlink:href="#SvgjsG4310" transform="translate(163.2, 0) scale(2.4)" fill="rgba(255, 87, 87, 1)"></use><use xlink:href="#SvgjsG4316" transform="translate(163.2, 81.6) scale(2.4)" fill="rgba(255, 87, 87, 1)"></use><use xlink:href="#SvgjsG4312" transform="translate(163.2, 163.2) scale(2.4)" fill="rgba(255, 87, 87, 1)"></use><use xlink:href="#SvgjsG4309" transform="translate(163.2, 244.79999999999998) scale(2.4)" fill="rgba(255, 87, 87, 1)"></use><use xlink:href="#SvgjsG4317" transform="translate(163.2, 326.4) scale(2.4)" fill="rgba(255, 87, 87, 1)"></use><use xlink:href="#SvgjsG4315" transform="translate(163.2, 408) scale(2.4)" fill="rgba(255, 87, 87, 1)"></use><use xlink:href="#SvgjsG4314" transform="translate(163.2, 489.59999999999997) scale(2.4)" fill="rgba(255, 87, 87, 1)"></use><use xlink:href="#SvgjsG4315" transform="translate(163.2, 571.1999999999999) scale(2.4)" fill="rgba(255, 87, 87, 1)"></use><use xlink:href="#SvgjsG4314" transform="translate(163.2, 652.8) scale(2.4)" fill="rgba(255, 87, 87, 1)"></use><use xlink:href="#SvgjsG4317" transform="translate(244.79999999999998, 0) scale(2.4)" fill="rgba(255, 87, 87, 1)"></use><use xlink:href="#SvgjsG4316" transform="translate(244.79999999999998, 81.6) scale(2.4)" fill="rgba(255, 87, 87, 1)"></use><use xlink:href="#SvgjsG4317" transform="translate(244.79999999999998, 163.2) scale(2.4)" fill="rgba(255, 87, 87, 1)"></use><use xlink:href="#SvgjsG4309" transform="translate(244.79999999999998, 244.79999999999998) scale(2.4)" fill="rgba(255, 87, 87, 1)"></use><use xlink:href="#SvgjsG4314" transform="translate(244.79999999999998, 326.4) scale(2.4)" fill="rgba(255, 87, 87, 1)"></use><use xlink:href="#SvgjsG4311" transform="translate(244.79999999999998, 408) scale(2.4)" fill="rgba(255, 87, 87, 1)"></use><use xlink:href="#SvgjsG4310" transform="translate(244.79999999999998, 489.59999999999997) scale(2.4)" fill="rgba(255, 87, 87, 1)"></use><use xlink:href="#SvgjsG4315" transform="translate(244.79999999999998, 571.1999999999999) scale(2.4)" fill="rgba(255, 87, 87, 1)"></use><use xlink:href="#SvgjsG4312" transform="translate(244.79999999999998, 652.8) scale(2.4)" fill="rgba(255, 87, 87, 1)"></use><use xlink:href="#SvgjsG4309" transform="translate(326.4, 0) scale(2.4)" fill="rgba(255, 87, 87, 1)"></use><use xlink:href="#SvgjsG4310" transform="translate(326.4, 81.6) scale(2.4)" fill="rgba(255, 87, 87, 1)"></use><use xlink:href="#SvgjsG4312" transform="translate(326.4, 163.2) scale(2.4)" fill="rgba(255, 87, 87, 1)"></use><use xlink:href="#SvgjsG4313" transform="translate(326.4, 244.79999999999998) scale(2.4)" fill="rgba(255, 87, 87, 1)"></use><use xlink:href="#SvgjsG4309" transform="translate(326.4, 326.4) scale(2.4)" fill="rgba(255, 87, 87, 1)"></use><use xlink:href="#SvgjsG4315" transform="translate(326.4, 408) scale(2.4)" fill="rgba(255, 87, 87, 1)"></use><use xlink:href="#SvgjsG4316" transform="translate(326.4, 489.59999999999997) scale(2.4)" fill="rgba(255, 87, 87, 1)"></use><use xlink:href="#SvgjsG4310" transform="translate(326.4, 571.1999999999999) scale(2.4)" fill="rgba(255, 87, 87, 1)"></use><use xlink:href="#SvgjsG4316" transform="translate(326.4, 652.8) scale(2.4)" fill="rgba(255, 87, 87, 1)"></use><use xlink:href="#SvgjsG4310" transform="translate(408, 0) scale(2.4)" fill="rgba(255, 87, 87, 1)"></use><use xlink:href="#SvgjsG4310" transform="translate(408, 81.6) scale(2.4)" fill="rgba(255, 87, 87, 1)"></use><use xlink:href="#SvgjsG4310" transform="translate(408, 163.2) scale(2.4)" fill="rgba(255, 87, 87, 1)"></use><use xlink:href="#SvgjsG4316" transform="translate(408, 244.79999999999998) scale(2.4)" fill="rgba(255, 87, 87, 1)"></use><use xlink:href="#SvgjsG4316" transform="translate(408, 326.4) scale(2.4)" fill="rgba(255, 87, 87, 1)"></use><use xlink:href="#SvgjsG4313" transform="translate(408, 408) scale(2.4)" fill="rgba(255, 87, 87, 1)"></use><use xlink:href="#SvgjsG4309" transform="translate(408, 489.59999999999997) scale(2.4)" fill="rgba(255, 87, 87, 1)"></use><use xlink:href="#SvgjsG4311" transform="translate(408, 571.1999999999999) scale(2.4)" fill="rgba(255, 87, 87, 1)"></use><use xlink:href="#SvgjsG4315" transform="translate(408, 652.8) scale(2.4)" fill="rgba(255, 87, 87, 1)"></use><use xlink:href="#SvgjsG4312" transform="translate(489.59999999999997, 0) scale(2.4)" fill="rgba(255, 87, 87, 1)"></use><use xlink:href="#SvgjsG4317" transform="translate(489.59999999999997, 81.6) scale(2.4)" fill="rgba(255, 87, 87, 1)"></use><use xlink:href="#SvgjsG4316" transform="translate(489.59999999999997, 163.2) scale(2.4)" fill="rgba(255, 87, 87, 1)"></use><use xlink:href="#SvgjsG4310" transform="translate(489.59999999999997, 244.79999999999998) scale(2.4)" fill="rgba(255, 87, 87, 1)"></use><use xlink:href="#SvgjsG4312" transform="translate(489.59999999999997, 326.4) scale(2.4)" fill="rgba(255, 87, 87, 1)"></use><use xlink:href="#SvgjsG4316" transform="translate(489.59999999999997, 408) scale(2.4)" fill="rgba(255, 87, 87, 1)"></use><use xlink:href="#SvgjsG4315" transform="translate(489.59999999999997, 489.59999999999997) scale(2.4)" fill="rgba(255, 87, 87, 1)"></use><use xlink:href="#SvgjsG4316" transform="translate(489.59999999999997, 571.1999999999999) scale(2.4)" fill="rgba(255, 87, 87, 1)"></use><use xlink:href="#SvgjsG4312" transform="translate(489.59999999999997, 652.8) scale(2.4)" fill="rgba(255, 87, 87, 1)"></use><use xlink:href="#SvgjsG4316" transform="translate(571.1999999999999, 0) scale(2.4)" fill="rgba(255, 87, 87, 1)"></use><use xlink:href="#SvgjsG4312" transform="translate(571.1999999999999, 81.6) scale(2.4)" fill="rgba(255, 87, 87, 1)"></use><use xlink:href="#SvgjsG4311" transform="translate(571.1999999999999, 163.2) scale(2.4)" fill="rgba(255, 87, 87, 1)"></use><use xlink:href="#SvgjsG4309" transform="translate(571.1999999999999, 244.79999999999998) scale(2.4)" fill="rgba(255, 87, 87, 1)"></use><use xlink:href="#SvgjsG4315" transform="translate(571.1999999999999, 326.4) scale(2.4)" fill="rgba(255, 87, 87, 1)"></use><use xlink:href="#SvgjsG4309" transform="translate(571.1999999999999, 408) scale(2.4)" fill="rgba(255, 87, 87, 1)"></use><use xlink:href="#SvgjsG4309" transform="translate(571.1999999999999, 489.59999999999997) scale(2.4)" fill="rgba(255, 87, 87, 1)"></use><use xlink:href="#SvgjsG4310" transform="translate(571.1999999999999, 571.1999999999999) scale(2.4)" fill="rgba(255, 87, 87, 1)"></use><use xlink:href="#SvgjsG4311" transform="translate(571.1999999999999, 652.8) scale(2.4)" fill="rgba(255, 87, 87, 1)"></use><use xlink:href="#SvgjsG4316" transform="translate(652.8, 0) scale(2.4)" fill="rgba(255, 87, 87, 1)"></use><use xlink:href="#SvgjsG4315" transform="translate(652.8, 81.6) scale(2.4)" fill="rgba(255, 87, 87, 1)"></use><use xlink:href="#SvgjsG4315" transform="translate(652.8, 163.2) scale(2.4)" fill="rgba(255, 87, 87, 1)"></use><use xlink:href="#SvgjsG4312" transform="translate(652.8, 244.79999999999998) scale(2.4)" fill="rgba(255, 87, 87, 1)"></use><use xlink:href="#SvgjsG4311" transform="translate(652.8, 326.4) scale(2.4)" fill="rgba(255, 87, 87, 1)"></use><use xlink:href="#SvgjsG4312" transform="translate(652.8, 408) scale(2.4)" fill="rgba(255, 87, 87, 1)"></use><use xlink:href="#SvgjsG4315" transform="translate(652.8, 489.59999999999997) scale(2.4)" fill="rgba(255, 87, 87, 1)"></use><use xlink:href="#SvgjsG4309" transform="translate(652.8, 571.1999999999999) scale(2.4)" fill="rgba(255, 87, 87, 1)"></use><use xlink:href="#SvgjsG4313" transform="translate(652.8, 652.8) scale(2.4)" fill="rgba(255, 87, 87, 1)"></use><use xlink:href="#SvgjsG4310" transform="translate(734.4, 0) scale(2.4)" fill="rgba(255, 87, 87, 1)"></use><use xlink:href="#SvgjsG4310" transform="translate(734.4, 81.6) scale(2.4)" fill="rgba(255, 87, 87, 1)"></use><use xlink:href="#SvgjsG4309" transform="translate(734.4, 163.2) scale(2.4)" fill="rgba(255, 87, 87, 1)"></use><use xlink:href="#SvgjsG4309" transform="translate(734.4, 244.79999999999998) scale(2.4)" fill="rgba(255, 87, 87, 1)"></use><use xlink:href="#SvgjsG4317" transform="translate(734.4, 326.4) scale(2.4)" fill="rgba(255, 87, 87, 1)"></use><use xlink:href="#SvgjsG4311" transform="translate(734.4, 408) scale(2.4)" fill="rgba(255, 87, 87, 1)"></use><use xlink:href="#SvgjsG4313" transform="translate(734.4, 489.59999999999997) scale(2.4)" fill="rgba(255, 87, 87, 1)"></use><use xlink:href="#SvgjsG4314" transform="translate(734.4, 571.1999999999999) scale(2.4)" fill="rgba(255, 87, 87, 1)"></use><use xlink:href="#SvgjsG4309" transform="translate(734.4, 652.8) scale(2.4)" fill="rgba(255, 87, 87, 1)"></use></g></defs></svg>